<?xml version="1.0" ?><!DOCTYPE svg  PUBLIC '-//W3C//DTD SVG 1.1//EN'  'http://www.w3.org/Graphics/SVG/1.1/DTD/svg11.dtd'><svg height="100%" style="fill-rule:evenodd;clip-rule:evenodd;stroke-linejoin:round;stroke-miterlimit:1.41421;" version="1.1" viewBox="0 0 24 24" width="100%" xml:space="preserve" xmlns="http://www.w3.org/2000/svg" xmlns:serif="http://www.serif.com/" xmlns:xlink="http://www.w3.org/1999/xlink"><rect height="24" id="Artboard5" style="fill:none;" width="24" x="0" y="0"/><path d="M3.283,4.511c2.403,2.791 5.248,4.216 8.513,4.349c-0.405,-2.67 1.03,-4.075 2.216,-4.702c1.185,-0.627 3.529,-0.672 4.839,0.882c1.019,-0.144 1.859,-0.522 2.624,-0.999c-0.174,0.841 -0.996,1.872 -1.749,2.292c0.721,-0.088 1.659,-0.343 2.274,-0.647c-0.336,0.693 -1.024,1.419 -2.041,2.175c0.377,9.728 -9.963,15.603 -17.959,10.52c2.269,0.164 4.301,-0.342 6.006,-1.763c-1.753,-0.041 -3.269,-1.107 -3.849,-2.88c0.513,0.148 1.327,0.112 1.866,-0.059c-1.134,-0.159 -3.172,-1.359 -3.323,-4.114c0.729,0.312 1.321,0.456 1.807,0.47c-1.436,-0.926 -2.466,-3.288 -1.224,-5.524Z" style="fill:#55acee;"/></svg>